<svg width="250" height="220" viewBox="0 0 250 220" fill="none" xmlns="http://www.w3.org/2000/svg">
<mask id="mask0_110_24089" style="mask-type:luminance" maskUnits="userSpaceOnUse" x="17" y="81" width="73" height="56">
<path d="M17.8256 81.9363H89.3334V136.428H17.8256V81.9363Z" fill="white"/>
</mask>
<g mask="url(#mask0_110_24089)">
<path d="M71.4167 81.9958H35.7136L17.8256 109.239L35.7136 136.428H71.4167L89.3021 109.239L71.4167 81.9958Z" fill="#007BFF"/>
</g>
<mask id="mask1_110_24089" style="mask-type:luminance" maskUnits="userSpaceOnUse" x="53" y="28" width="108" height="109">
<path d="M53.3334 28.772H160.779V136.428H53.3334V28.772Z" fill="white"/>
</mask>
<g mask="url(#mask1_110_24089)">
<path d="M149.469 92.0541L149.474 92.0518L148.271 90.2185L142.893 81.996H142.867L118.823 45.3935L118.818 45.398L107.122 27.6216H71.4167L53.5312 54.8076L65.5677 73.1066H65.5651L95.0312 117.984L107.122 136.428H142.893L160.711 109.239L149.469 92.0541Z" fill="#FF0000"/>
</g>
<mask id="mask2_110_24089" style="mask-type:luminance" maskUnits="userSpaceOnUse" x="124" y="28" width="109" height="109">
<path d="M124.872 28.772H232.188V136.428H124.872V28.772Z" fill="white"/>
</mask>
<g mask="url(#mask2_110_24089)">
<path d="M220.036 90.7318L220.086 90.7066L189.5 44.0483L189.43 44.0872L178.596 27.6216H142.893L125.005 54.8076L142.893 81.996H142.904L160.766 109.159L160.711 109.239L178.596 136.428H214.302L232.188 109.239L220.036 90.7318Z" fill="#FFDE59"/>
</g>
<path d="M49.0571 153.543L42.2133 144.672H37.1534V167.587H43.5154V156.195L47.2732 161.138H50.8071L54.5649 156.259V167.587H60.8878V144.672H55.9034L49.0571 153.543Z" fill="#007BFF"/>
<path d="M70.444 145.981C70.444 147.913 72.2304 148.862 74.0169 148.862C75.7278 148.862 77.4752 147.913 77.4752 145.981C77.4752 143.951 75.6888 142.97 73.9049 142.97C72.194 142.97 70.444 143.985 70.444 145.981ZM71.0039 149.877H76.9544V167.587H71.0039V149.877Z" fill="#007BFF"/>
<path d="M93.0988 151.644V149.877H87.1847V167.587H93.3956V157.962C93.3956 155.704 95.479 154.394 97.2264 154.394C98.8279 154.394 100.351 155.475 100.351 157.863V167.587H106.304V157.831C106.341 153.413 104.778 149.68 99.0493 149.615C96.893 149.615 94.5128 150.074 93.0988 151.644Z" fill="#007BFF"/>
<path d="M142.422 144.409L132.005 167.587H138.812L140.265 164.216H149.156L150.606 167.587H157.786L146.961 144.409H142.422ZM144.729 153.642L146.737 158.617L146.885 159.009H142.57L142.794 158.486L144.729 153.642Z" fill="#007BFF"/>
<path d="M176.866 144.475H166.337V167.587H172.699V160.778H176.866C182.967 160.778 186.017 156.685 186.017 152.659C186.017 148.632 182.967 144.475 176.866 144.475ZM176.866 155.507H172.699V149.909H176.866C178.837 149.909 179.803 151.382 179.803 152.757C179.803 154.1 178.837 155.507 176.866 155.507Z" fill="#007BFF"/>
<path d="M206.288 144.475H195.76V167.587H202.122V160.778H206.288C212.39 160.778 215.439 156.685 215.439 152.659C215.439 148.632 212.39 144.475 206.288 144.475ZM206.288 155.507H202.122V149.909H206.288C208.26 149.909 209.226 151.382 209.226 152.757C209.226 154.1 208.26 155.507 206.288 155.507Z" fill="#007BFF"/>
<path d="M39.1796 178.751C39.7889 178.751 40.3176 178.832 40.7629 178.99C41.2056 179.15 41.6379 179.393 42.0546 179.723L41.5441 180.209C41.1613 179.929 40.7889 179.723 40.4296 179.595C40.0754 179.466 39.6691 179.402 39.2108 179.402C38.591 179.402 38.091 179.538 37.7108 179.806C37.3358 180.076 37.1483 180.436 37.1483 180.887C37.1483 181.199 37.216 181.456 37.3566 181.657C37.4947 181.854 37.7264 182.031 38.0546 182.189C38.3879 182.349 38.8593 182.51 39.4712 182.675C40.1301 182.854 40.6639 183.046 41.0754 183.252C41.4843 183.454 41.7994 183.718 42.0233 184.041C42.2447 184.366 42.3566 184.779 42.3566 185.278C42.3566 185.773 42.2212 186.213 41.9504 186.598C41.6796 186.979 41.2941 187.274 40.7941 187.487C40.2941 187.7 39.7134 187.808 39.0546 187.808C37.8098 187.808 36.7473 187.441 35.8671 186.708L36.3566 186.222C36.7655 186.529 37.1796 186.761 37.5962 186.919C38.0129 187.079 38.4921 187.157 39.0337 187.157C39.7551 187.157 40.341 186.992 40.7941 186.662C41.2447 186.328 41.4712 185.872 41.4712 185.296C41.4712 184.944 41.3931 184.65 41.2421 184.416C41.0884 184.185 40.8462 183.986 40.5129 183.821C40.1796 183.656 39.7056 183.488 39.0962 183.316C38.0754 183.041 37.3462 182.728 36.9087 182.372C36.4712 182.013 36.2525 181.524 36.2525 180.906C36.2525 180.498 36.3775 180.126 36.6275 179.796C36.8775 179.466 37.2212 179.21 37.6587 179.026C38.1014 178.843 38.6093 178.751 39.1796 178.751Z" fill="black"/>
<path d="M48.5898 178.889V187.671H47.7148V178.889H48.5898Z" fill="black"/>
<path d="M63.372 187.671H62.5283L62.0804 183.463C61.8929 181.831 61.7627 180.562 61.6949 179.65L59.1949 186.635H58.3616L55.7679 179.65C55.7184 180.475 55.622 181.572 55.4762 182.941L55.4345 183.445L54.997 187.671H54.1637L55.1116 178.889H56.3199L58.7991 185.727L61.1845 178.889H62.4137L63.372 187.671Z" fill="black"/>
<path d="M71.2921 178.889C72.4796 178.889 73.3885 179.107 74.0213 179.54C74.6593 179.975 74.9796 180.635 74.9796 181.52C74.9796 182.462 74.6463 183.151 73.9796 183.591C73.3129 184.031 72.4015 184.251 71.2504 184.251H69.8234V187.671H68.9484V178.889H71.2921ZM71.2504 183.619C72.1515 183.619 72.8468 183.463 73.3338 183.151C73.8182 182.835 74.0629 182.294 74.0629 181.529C74.0629 180.814 73.826 180.301 73.3546 179.989C72.8807 179.677 72.1906 179.521 71.2817 179.521H69.8234V183.619H71.2504Z" fill="black"/>
<path d="M81.0809 178.889V186.983H85.2476L85.133 187.671H80.2059V178.889H81.0809Z" fill="black"/>
<path d="M90.9841 178.889V187.671H90.1091V178.889H90.9841Z" fill="black"/>
<path d="M97.1726 187.671V178.889H102.152L102.058 179.531H98.0476V182.959H101.496V183.591H98.0476V187.671H97.1726Z" fill="black"/>
<path d="M112.936 178.889L109.77 184.233V187.671H108.895V184.251L105.707 178.889H106.686L109.363 183.555L111.999 178.889H112.936Z" fill="black"/>
<path d="M134.456 178.889L132.269 187.671H131.175L128.998 179.751L126.81 187.671H125.748L123.55 178.889H124.435L126.331 186.956L128.519 178.889H129.488L131.717 186.956L133.623 178.889H134.456Z" fill="black"/>
<path d="M144.928 187.671L144.053 185.278H139.865L138.99 187.671H138.094L141.438 178.889H142.521L145.844 187.671H144.928ZM140.105 184.618H143.823L141.969 179.521L140.105 184.618Z" fill="black"/>
<path d="M153.539 183.738H151.539V187.671H150.664V178.889H153.081C155.448 178.889 156.633 179.684 156.633 181.272C156.633 181.909 156.44 182.416 156.06 182.794C155.685 183.167 155.133 183.433 154.404 183.591L157.143 187.671H156.112L153.539 183.738ZM153.196 183.106C154.867 183.106 155.706 182.496 155.706 181.272C155.706 180.681 155.498 180.241 155.081 179.952C154.664 179.666 153.987 179.521 153.05 179.521H151.539V183.106H153.196Z" fill="black"/>
<path d="M165.088 183.738H163.088V187.671H162.213V178.889H164.63C166.997 178.889 168.182 179.684 168.182 181.272C168.182 181.909 167.989 182.416 167.609 182.794C167.234 183.167 166.682 183.433 165.953 183.591L168.692 187.671H167.661L165.088 183.738ZM164.744 183.106C166.416 183.106 167.255 182.496 167.255 181.272C167.255 180.681 167.046 180.241 166.63 179.952C166.213 179.666 165.536 179.521 164.599 179.521H163.088V183.106H164.744Z" fill="black"/>
<path d="M179.21 187.671L178.335 185.278H174.147L173.272 187.671H172.376L175.72 178.889H176.804L180.126 187.671H179.21ZM174.387 184.618H178.106L176.251 179.521L174.387 184.618Z" fill="black"/>
<path d="M191.52 187.671H190.363L185.665 179.741C185.741 180.805 185.78 181.813 185.78 182.766V187.671H184.947V178.889H186.072L190.801 186.827C190.723 185.837 190.686 184.971 190.686 184.224V178.889H191.52V187.671Z" fill="black"/>
<path d="M203.152 178.889L203.048 179.567H200.121V187.671H199.267V179.567H196.308V178.889H203.152Z" fill="black"/>
<path d="M213.672 178.889L210.505 184.233V187.671H209.63V184.251L206.442 178.889H207.422L210.099 183.555L212.734 178.889H213.672Z" fill="black"/>
</svg>
