<svg width="25" height="25" viewBox="0 0 25 25" fill="none" xmlns="http://www.w3.org/2000/svg">
<path d="M12.4999 1.88574C12.9143 1.88574 13.3116 2.0503 13.6046 2.34322L17.1874 5.92603V3.90572C17.1874 3.69852 17.2698 3.49981 17.4163 3.35329C17.5628 3.20678 17.7615 3.12447 17.9687 3.12447H19.5312C19.7384 3.12447 19.9371 3.20678 20.0836 3.35329C20.2301 3.49981 20.3124 3.69852 20.3124 3.90572V9.05103L23.9906 12.7276C24.1371 12.8743 24.2193 13.0732 24.2191 13.2805C24.219 13.4878 24.1365 13.6866 23.9898 13.8331C23.8431 13.9796 23.6442 14.0618 23.4369 14.0616C23.2296 14.0615 23.0308 13.979 22.8843 13.8323L12.4999 3.44791L2.11557 13.8323C1.96908 13.979 1.77031 14.0615 1.563 14.0616C1.35568 14.0618 1.1568 13.9796 1.0101 13.8331C0.863405 13.6866 0.780908 13.4878 0.780762 13.2805C0.780615 13.0732 0.862831 12.8743 1.00932 12.7276L11.3953 2.34322C11.6883 2.0503 12.0856 1.88574 12.4999 1.88574Z" fill="#9090AD"/>
<path fill-rule="evenodd" clip-rule="evenodd" d="M21.8749 14.52L12.4999 5.14502L3.12494 14.52V21.0935C3.12494 21.7151 3.37187 22.3112 3.81141 22.7507C4.25095 23.1903 4.84709 23.4372 5.46869 23.4372H19.5312C20.1528 23.4372 20.7489 23.1903 21.1885 22.7507C21.628 22.3112 21.8749 21.7151 21.8749 21.0935V14.52ZM12.4999 13.2528C15.0999 10.6388 21.6015 15.2122 12.4999 21.0935C3.39838 15.2122 9.89994 10.6388 12.4999 13.2528Z" fill="#9090AD"/>
</svg>
