<svg width="41" height="40" viewBox="0 0 41 40" fill="none" xmlns="http://www.w3.org/2000/svg">
<rect x="0.5" width="40" height="40" rx="12" fill="white"/>
<g clip-path="url(#clip0_105_16738)">
<path d="M21 17.6858C23.2523 17.6858 25.0781 15.86 25.0781 13.6077C25.0781 11.3554 23.2523 9.52954 21 9.52954C18.7477 9.52954 16.9219 11.3554 16.9219 13.6077C16.9219 15.86 18.7477 17.6858 21 17.6858Z" fill="#13AF55"/>
<path d="M29.25 17.6858C30.6739 17.6858 31.8281 16.5315 31.8281 15.1077C31.8281 13.6838 30.6739 12.5295 29.25 12.5295C27.8261 12.5295 26.6719 13.6838 26.6719 15.1077C26.6719 16.5315 27.8261 17.6858 29.25 17.6858Z" fill="#13AF55"/>
<path d="M12.75 17.6858C14.1739 17.6858 15.3281 16.5315 15.3281 15.1077C15.3281 13.6838 14.1739 12.5295 12.75 12.5295C11.3261 12.5295 10.1719 13.6838 10.1719 15.1077C10.1719 16.5315 11.3261 17.6858 12.75 17.6858Z" fill="#13AF55"/>
<path d="M15.2902 20.0009C14.2753 19.1694 13.3562 19.2795 12.1828 19.2795C10.4278 19.2795 9 20.6989 9 22.4431V27.5623C9 28.3198 9.61828 28.9357 10.3786 28.9357C13.6611 28.9357 13.2656 28.9951 13.2656 28.7942C13.2656 25.1667 12.836 22.5065 15.2902 20.0009Z" fill="#13AF55"/>
<path d="M22.1161 19.2982C20.0665 19.1273 18.2851 19.3002 16.7485 20.5685C14.177 22.6282 14.6719 25.4015 14.6719 28.7942C14.6719 29.6918 15.4022 30.4357 16.3135 30.4357C26.2079 30.4357 26.6017 30.7549 27.1885 29.4556C27.3809 29.0162 27.3281 29.1558 27.3281 24.9523C27.3281 21.6136 24.4372 19.2982 22.1161 19.2982Z" fill="#13AF55"/>
<path d="M29.8172 19.2796C28.6373 19.2796 27.7233 19.1707 26.7098 20.001C29.1457 22.488 28.7344 24.9667 28.7344 28.7943C28.7344 28.9965 28.4061 28.9359 31.5722 28.9359C32.3597 28.9359 33 28.2979 33 27.5137V22.4432C33 20.699 31.5722 19.2796 29.8172 19.2796Z" fill="#13AF55"/>
</g>
<defs>
<clipPath id="clip0_105_16738">
<rect width="24" height="24" fill="white" transform="translate(9 8)"/>
</clipPath>
</defs>
</svg>
