<svg width="41" height="40" viewBox="0 0 41 40" fill="none" xmlns="http://www.w3.org/2000/svg">
<rect x="0.5" width="40" height="40" rx="12" fill="white"/>
<g clip-path="url(#clip0_105_16733)">
<g clip-path="url(#clip1_105_16733)">
<path d="M18.6909 16.5896L20.3439 13.8334L10.4869 11.0735L9.169 13.2776C8.83542 13.8327 9.01492 14.5531 9.56998 14.8867C9.65993 14.9407 9.75666 14.9824 9.85771 15.0108L17.3701 17.1155C17.8786 17.2576 18.4193 17.0423 18.6909 16.5896Z" fill="url(#paint0_linear_105_16733)"/>
<path d="M11.0268 23.6859L14.572 24.654V20.4288C14.572 19.482 15.3395 18.7145 16.2862 18.7145H20.5719V15.1201L19.4259 17.0307C18.9549 17.8137 18.0192 18.186 17.1391 17.9405L10.7148 16.1431V23.2745C10.7152 23.4659 10.8426 23.6338 11.0268 23.6859Z" fill="url(#paint1_linear_105_16733)"/>
<path d="M21.0005 13.1271L30.1376 10.569L21.2302 8.03183C21.0796 7.98939 20.9201 7.98939 20.7695 8.03183L11.8634 10.569L21.0005 13.1271Z" fill="url(#paint2_linear_105_16733)"/>
<path d="M30.9758 23.6858C31.1594 23.6331 31.2859 23.4653 31.2861 23.2743V16.1429L24.8619 17.9429C24.6846 17.9929 24.5013 18.0181 24.3171 18.0179C23.6037 18.0177 22.9425 17.6437 22.575 17.0322L21.429 15.1199V18.7143H25.7147C26.6614 18.7143 27.429 19.4818 27.429 20.4285V24.6538L30.9758 23.6858Z" fill="url(#paint3_linear_105_16733)"/>
<path d="M23.3101 16.5896C23.582 17.042 24.1225 17.2572 24.631 17.1155L32.1434 15.0108C32.7669 14.8358 33.1306 14.1886 32.9556 13.565C32.9274 13.4645 32.8859 13.3681 32.8321 13.2785L31.5151 11.0735L21.658 13.8335L23.3101 16.5896Z" fill="url(#paint4_linear_105_16733)"/>
<path d="M26.5719 31.1429V20.4287C26.5719 19.9553 26.1881 19.5715 25.7147 19.5715H16.2862C15.8128 19.5715 15.4291 19.9553 15.4291 20.4287V31.1429C15.4291 31.6163 15.8128 32.0001 16.2862 32.0001H25.7147C26.1881 32.0001 26.5719 31.6163 26.5719 31.1429ZM19.1606 29.303L17.8749 30.5887C17.7076 30.756 17.4363 30.756 17.2689 30.5887L16.8404 30.1602C16.676 29.9899 16.6807 29.7186 16.8509 29.5542C17.017 29.3938 17.2803 29.3938 17.4464 29.5542L17.5719 29.6798L18.5547 28.697C18.7249 28.5326 18.9962 28.5373 19.1606 28.7075C19.3211 28.8737 19.3211 29.137 19.1606 29.303ZM19.1606 26.7316L17.8749 28.0173C17.7076 28.1846 17.4363 28.1846 17.2689 28.0173L16.8404 27.5888C16.676 27.4185 16.6807 27.1472 16.8509 26.9828C17.017 26.8224 17.2803 26.8224 17.4464 26.9828L17.5719 27.1083L18.5547 26.1256C18.7249 25.9612 18.9962 25.9659 19.1606 26.1361C19.3211 26.3023 19.3211 26.5656 19.1606 26.7316ZM19.1606 24.1602L17.8749 25.4459C17.7076 25.6132 17.4363 25.6132 17.2689 25.4459L16.8404 25.0174C16.676 24.8471 16.6807 24.5758 16.8509 24.4114C17.017 24.251 17.2803 24.251 17.4464 24.4114L17.5719 24.5369L18.5547 23.5542C18.7249 23.3898 18.9962 23.3945 19.1606 23.5647C19.3211 23.7308 19.3211 23.9942 19.1606 24.1602ZM19.1606 21.5888L17.8749 22.8745C17.7076 23.0418 17.4363 23.0418 17.2689 22.8745L16.8404 22.4459C16.676 22.2757 16.6807 22.0044 16.8509 21.84C17.017 21.6795 17.2803 21.6795 17.4464 21.84L17.5719 21.9655L18.5547 20.9828C18.7249 20.8184 18.9962 20.8231 19.1606 20.9933C19.3211 21.1594 19.3211 21.4228 19.1606 21.5888ZM24.8576 30.2857H20.572C20.3353 30.2857 20.1434 30.0939 20.1434 29.8572C20.1434 29.6205 20.3353 29.4286 20.572 29.4286H24.8576C25.0943 29.4286 25.2862 29.6205 25.2862 29.8572C25.2862 30.0939 25.0943 30.2857 24.8576 30.2857ZM24.8576 27.7143H20.572C20.3353 27.7143 20.1434 27.5224 20.1434 27.2858C20.1434 27.0491 20.3353 26.8572 20.572 26.8572H24.8576C25.0943 26.8572 25.2862 27.0491 25.2862 27.2858C25.2862 27.5225 25.0943 27.7143 24.8576 27.7143ZM24.8576 25.1429H20.572C20.3353 25.1429 20.1434 24.9511 20.1434 24.7144C20.1434 24.4777 20.3353 24.2858 20.572 24.2858H24.8576C25.0943 24.2858 25.2862 24.4777 25.2862 24.7144C25.2862 24.9511 25.0943 25.1429 24.8576 25.1429ZM24.8576 22.5715H20.572C20.3353 22.5715 20.1434 22.3796 20.1434 22.1429C20.1434 21.9062 20.3353 21.7144 20.572 21.7144H24.8576C25.0943 21.7144 25.2862 21.9062 25.2862 22.1429C25.2862 22.3796 25.0943 22.5715 24.8576 22.5715Z" fill="url(#paint5_linear_105_16733)"/>
</g>
</g>
<defs>
<linearGradient id="paint0_linear_105_16733" x1="7.80732" y1="11.0735" x2="13.7385" y2="21.0758" gradientUnits="userSpaceOnUse">
<stop stop-color="#098E42"/>
<stop offset="1" stop-color="#1EBE25"/>
</linearGradient>
<linearGradient id="paint1_linear_105_16733" x1="9.67726" y1="15.1201" x2="20.244" y2="25.0046" gradientUnits="userSpaceOnUse">
<stop stop-color="#098E42"/>
<stop offset="1" stop-color="#1EBE25"/>
</linearGradient>
<linearGradient id="paint2_linear_105_16733" x1="9.9398" y1="8" x2="13.1621" y2="18.3912" gradientUnits="userSpaceOnUse">
<stop stop-color="#098E42"/>
<stop offset="1" stop-color="#1EBE25"/>
</linearGradient>
<linearGradient id="paint3_linear_105_16733" x1="20.3914" y1="15.1199" x2="30.9582" y2="25.0044" gradientUnits="userSpaceOnUse">
<stop stop-color="#098E42"/>
<stop offset="1" stop-color="#1EBE25"/>
</linearGradient>
<linearGradient id="paint4_linear_105_16733" x1="20.4642" y1="11.0735" x2="26.3953" y2="21.0751" gradientUnits="userSpaceOnUse">
<stop stop-color="#098E42"/>
<stop offset="1" stop-color="#1EBE25"/>
</linearGradient>
<linearGradient id="paint5_linear_105_16733" x1="14.2561" y1="19.5715" x2="27.7649" y2="30.5294" gradientUnits="userSpaceOnUse">
<stop stop-color="#098E42"/>
<stop offset="1" stop-color="#1EBE25"/>
</linearGradient>
<clipPath id="clip0_105_16733">
<rect width="23.9999" height="24" fill="white" transform="translate(9 8)"/>
</clipPath>
<clipPath id="clip1_105_16733">
<rect width="24" height="24" fill="white" transform="translate(9.00037 8)"/>
</clipPath>
</defs>
</svg>
