<svg width="44" height="44" viewBox="0 0 44 44" fill="none" xmlns="http://www.w3.org/2000/svg">
<g clip-path="url(#clip0_1253_12906)">
<rect width="44" height="44" rx="12" fill="#09B610"/>
<path d="M12.4976 14.485V27.9175C12.5002 28.9073 12.8946 29.8558 13.5944 30.5556C14.2943 31.2555 15.2428 31.6499 16.2326 31.6525H21.2876C21.3595 31.1332 21.5087 30.6277 21.7301 30.1525C22.3357 28.8167 23.4311 27.7643 24.7901 27.2125C24.3003 26.8736 23.9004 26.4208 23.6247 25.8929C23.349 25.365 23.2058 24.778 23.2076 24.1825C23.2085 23.1982 23.6 22.2545 24.296 21.5584C24.992 20.8624 25.9357 20.471 26.9201 20.47C27.2785 20.4686 27.6351 20.5217 27.9776 20.6275C28.5397 20.7938 29.054 21.0921 29.4776 21.4975V14.485C29.4775 13.4944 29.0839 12.5445 28.3835 11.8441C27.6831 11.1436 26.7331 10.7501 25.7426 10.75H16.2326C15.2424 10.7514 14.2932 11.1453 13.593 11.8455C12.8929 12.5456 12.4989 13.4948 12.4976 14.485ZM17.0276 14.47H24.9476C25.1465 14.47 25.3372 14.549 25.4779 14.6897C25.6185 14.8303 25.6976 15.0211 25.6976 15.22C25.6976 15.4189 25.6185 15.6097 25.4779 15.7503C25.3372 15.891 25.1465 15.97 24.9476 15.97H17.0276C16.8286 15.97 16.6379 15.891 16.4972 15.7503C16.3566 15.6097 16.2776 15.4189 16.2776 15.22C16.2776 15.0211 16.3566 14.8303 16.4972 14.6897C16.6379 14.549 16.8286 14.47 17.0276 14.47ZM17.0276 18.46H24.9476C25.1465 18.46 25.3372 18.539 25.4779 18.6797C25.6185 18.8203 25.6976 19.0111 25.6976 19.21C25.6976 19.4089 25.6185 19.5997 25.4779 19.7403C25.3372 19.881 25.1465 19.96 24.9476 19.96H17.0276C16.8286 19.96 16.6379 19.881 16.4972 19.7403C16.3566 19.5997 16.2776 19.4089 16.2776 19.21C16.2776 19.0111 16.3566 18.8203 16.4972 18.6797C16.6379 18.539 16.8286 18.46 17.0276 18.46ZM17.0276 22.4425H20.6276C20.8265 22.4425 21.0172 22.5215 21.1579 22.6622C21.2985 22.8028 21.3776 22.9936 21.3776 23.1925C21.3776 23.3914 21.2985 23.5822 21.1579 23.7228C21.0172 23.8635 20.8265 23.9425 20.6276 23.9425H17.0276C16.8286 23.9425 16.6379 23.8635 16.4972 23.7228C16.3566 23.5822 16.2776 23.3914 16.2776 23.1925C16.2776 22.9936 16.3566 22.8028 16.4972 22.6622C16.6379 22.5215 16.8286 22.4425 17.0276 22.4425Z" fill="white"/>
<path d="M26.92 26.77C28.3491 26.77 29.5075 25.6115 29.5075 24.1825C29.5075 22.7534 28.3491 21.595 26.92 21.595C25.491 21.595 24.3325 22.7534 24.3325 24.1825C24.3325 25.6115 25.491 26.77 26.92 26.77Z" fill="white"/>
<path d="M23.0952 33.2499H30.7527C30.9514 33.2493 31.1419 33.1701 31.2824 33.0296C31.4229 32.889 31.5021 32.6986 31.5027 32.4999C31.5027 31.2855 31.0203 30.1209 30.1616 29.2622C29.3029 28.4035 28.1383 27.9211 26.924 27.9211C25.7096 27.9211 24.545 28.4035 23.6863 29.2622C22.8276 30.1209 22.3452 31.2855 22.3452 32.4999C22.3458 32.6986 22.425 32.8891 22.5655 33.0296C22.706 33.1701 22.8965 33.2493 23.0952 33.2499Z" fill="white"/>
<rect x="-1" y="-1" width="44" height="44" rx="12" fill="#09B610"/>
<path d="M31.3408 16.8696C31.8859 16.8696 32.4192 16.917 32.9409 17V15.6015C32.9409 14.0015 31.649 12.7096 30.061 12.7096H27.0251V10.7747C27.0251 9.34532 25.8619 8.18213 24.4325 8.18213H19.8885C18.4591 8.18213 17.296 9.34532 17.296 10.7747V12.7096H14.2624C12.6741 12.7096 11.3706 14.0015 11.3706 15.6015V26.0548C11.3706 27.643 12.6741 28.9467 14.2624 28.9467H21.9898C21.7884 28.1763 21.6817 27.3704 21.6817 26.5289C21.6817 21.2074 26.0193 16.8696 31.3408 16.8696ZM19.6663 10.7747C19.6663 10.652 19.7659 10.5525 19.8885 10.5525H24.4325C24.5552 10.5525 24.6547 10.652 24.6547 10.7747V12.707H19.6663V10.7747Z" fill="white"/>
<path d="M31.341 19.24C27.3234 19.24 24.0522 22.4992 24.0522 26.5289C24.0522 30.5585 27.3234 33.8178 31.341 33.8178C35.3708 33.8178 38.6301 30.5585 38.6301 26.5289C38.6301 22.4992 35.3708 19.24 31.341 19.24ZM33.8182 29.243C33.374 29.6873 32.6178 29.7134 32.1469 29.243L30.5114 27.6074C30.2863 27.3822 30.1558 27.0859 30.1558 26.7659V22.914C30.1558 22.2503 30.6891 21.7289 31.341 21.7289C32.0048 21.7289 32.5262 22.2503 32.5262 22.914V26.28L33.8182 27.56C34.2803 28.0223 34.2803 28.7807 33.8182 29.243Z" fill="white"/>
</g>
<defs>
<clipPath id="clip0_1253_12906">
<rect width="44" height="44" rx="12" fill="white"/>
</clipPath>
</defs>
</svg>
