<svg width="44" height="44" viewBox="0 0 44 44" fill="none" xmlns="http://www.w3.org/2000/svg">
<rect width="44" height="44" rx="12" fill="#09B610"/>
<g clip-path="url(#clip0_1253_12896)">
<path d="M15.6719 22C15.6719 25.4875 18.5125 28.3281 22 28.3281C25.4875 28.3281 28.3281 25.4875 28.3281 22C28.3281 18.5125 25.4875 15.6719 22 15.6719C18.5125 15.6719 15.6719 18.5125 15.6719 22ZM25.3046 21.0859L21.2969 25.1079L18.6954 22.4922L19.6797 21.5079L21.2969 23.1109L24.3204 20.1016L25.3046 21.0859Z" fill="white"/>
<path d="M22 34C28.5953 34 34 28.5953 34 22H31.1875C31.1875 27.0344 27.0344 31.1406 22 31.1406C16.9656 31.1406 12.8594 27.0344 12.8594 22C12.8594 16.9656 16.9656 12.8594 22 12.8594C24.0532 12.8594 25.9516 13.5343 27.4703 14.6875L26.4016 15.7563L31.3656 16.7406L30.3813 11.7765L29.4813 12.6765C27.4281 11.0312 24.8266 10 22 10C15.4047 10 10 15.4047 10 22C10 28.5953 15.4047 34 22 34Z" fill="white"/>
</g>
<defs>
<clipPath id="clip0_1253_12896">
<rect width="24" height="24" fill="white" transform="translate(10 10)"/>
</clipPath>
</defs>
</svg>
