<svg width="44" height="44" viewBox="0 0 44 44" fill="none" xmlns="http://www.w3.org/2000/svg">
<rect width="44" height="44" rx="12" fill="#09B610"/>
<path d="M13.4976 12.485V25.9175C13.5002 26.9073 13.8946 27.8558 14.5944 28.5556C15.2943 29.2555 16.2428 29.6499 17.2326 29.6525H22.2876C22.3595 29.1332 22.5087 28.6277 22.7301 28.1525C23.3357 26.8167 24.4311 25.7643 25.7901 25.2125C25.3003 24.8736 24.9004 24.4208 24.6247 23.8929C24.349 23.365 24.2058 22.778 24.2076 22.1825C24.2085 21.1982 24.6 20.2545 25.296 19.5584C25.992 18.8624 26.9357 18.471 27.9201 18.47C28.2785 18.4686 28.6351 18.5217 28.9776 18.6275C29.5397 18.7938 30.054 19.0921 30.4776 19.4975V12.485C30.4775 11.4944 30.0839 10.5445 29.3835 9.84405C28.6831 9.14363 27.7331 8.75009 26.7426 8.75H17.2326C16.2424 8.75136 15.2932 9.14531 14.593 9.84546C13.8929 10.5456 13.4989 11.4948 13.4976 12.485ZM18.0276 12.47H25.9476C26.1465 12.47 26.3372 12.549 26.4779 12.6897C26.6185 12.8303 26.6976 13.0211 26.6976 13.22C26.6976 13.4189 26.6185 13.6097 26.4779 13.7503C26.3372 13.891 26.1465 13.97 25.9476 13.97H18.0276C17.8286 13.97 17.6379 13.891 17.4972 13.7503C17.3566 13.6097 17.2776 13.4189 17.2776 13.22C17.2776 13.0211 17.3566 12.8303 17.4972 12.6897C17.6379 12.549 17.8286 12.47 18.0276 12.47ZM18.0276 16.46H25.9476C26.1465 16.46 26.3372 16.539 26.4779 16.6797C26.6185 16.8203 26.6976 17.0111 26.6976 17.21C26.6976 17.4089 26.6185 17.5997 26.4779 17.7403C26.3372 17.881 26.1465 17.96 25.9476 17.96H18.0276C17.8286 17.96 17.6379 17.881 17.4972 17.7403C17.3566 17.5997 17.2776 17.4089 17.2776 17.21C17.2776 17.0111 17.3566 16.8203 17.4972 16.6797C17.6379 16.539 17.8286 16.46 18.0276 16.46ZM18.0276 20.4425H21.6276C21.8265 20.4425 22.0172 20.5215 22.1579 20.6622C22.2985 20.8028 22.3776 20.9936 22.3776 21.1925C22.3776 21.3914 22.2985 21.5822 22.1579 21.7228C22.0172 21.8635 21.8265 21.9425 21.6276 21.9425H18.0276C17.8286 21.9425 17.6379 21.8635 17.4972 21.7228C17.3566 21.5822 17.2776 21.3914 17.2776 21.1925C17.2776 20.9936 17.3566 20.8028 17.4972 20.6622C17.6379 20.5215 17.8286 20.4425 18.0276 20.4425Z" fill="white"/>
<path d="M27.92 24.77C29.3491 24.77 30.5075 23.6115 30.5075 22.1825C30.5075 20.7534 29.3491 19.595 27.92 19.595C26.491 19.595 25.3325 20.7534 25.3325 22.1825C25.3325 23.6115 26.491 24.77 27.92 24.77Z" fill="white"/>
<path d="M24.0952 31.2499H31.7527C31.9514 31.2493 32.1419 31.1701 32.2824 31.0296C32.4229 30.889 32.5021 30.6986 32.5027 30.4999C32.5027 29.2855 32.0203 28.1209 31.1616 27.2622C30.3029 26.4035 29.1383 25.9211 27.924 25.9211C26.7096 25.9211 25.545 26.4035 24.6863 27.2622C23.8276 28.1209 23.3452 29.2855 23.3452 30.4999C23.3458 30.6986 23.425 30.8891 23.5655 31.0296C23.706 31.1701 23.8965 31.2493 24.0952 31.2499Z" fill="white"/>
</svg>
