<svg width="25" height="25" viewBox="0 0 25 25" fill="none" xmlns="http://www.w3.org/2000/svg">
<g clip-path="url(#clip0_1293_3729)">
<path d="M10.9375 3.90625C10.9375 3.69905 11.0198 3.50034 11.1663 3.35382C11.3128 3.20731 11.5115 3.125 11.7188 3.125H22.6562C22.8635 3.125 23.0622 3.20731 23.2087 3.35382C23.3552 3.50034 23.4375 3.69905 23.4375 3.90625V5.46875C23.4375 5.67595 23.3552 5.87466 23.2087 6.02118C23.0622 6.16769 22.8635 6.25 22.6562 6.25H11.7188C11.5115 6.25 11.3128 6.16769 11.1663 6.02118C11.0198 5.87466 10.9375 5.67595 10.9375 5.46875V3.90625ZM3.125 1.5625C2.2962 1.5625 1.50134 1.89174 0.915291 2.47779C0.32924 3.06384 0 3.8587 0 4.6875L0 7.8125C0 8.6413 0.32924 9.43616 0.915291 10.0222C1.50134 10.6083 2.2962 10.9375 3.125 10.9375H6.25C7.0788 10.9375 7.87366 10.6083 8.45971 10.0222C9.04576 9.43616 9.375 8.6413 9.375 7.8125V4.6875C9.375 3.8587 9.04576 3.06384 8.45971 2.47779C7.87366 1.89174 7.0788 1.5625 6.25 1.5625H3.125ZM3.125 14.0625C2.2962 14.0625 1.50134 14.3917 0.915291 14.9778C0.32924 15.5638 0 16.3587 0 17.1875L0 20.3125C0 21.1413 0.32924 21.9362 0.915291 22.5222C1.50134 23.1083 2.2962 23.4375 3.125 23.4375H6.25C7.0788 23.4375 7.87366 23.1083 8.45971 22.5222C9.04576 21.9362 9.375 21.1413 9.375 20.3125V17.1875C9.375 16.3587 9.04576 15.5638 8.45971 14.9778C7.87366 14.3917 7.0788 14.0625 6.25 14.0625H3.125ZM4.45938 8.36563C4.3868 8.43838 4.30059 8.4961 4.20568 8.53549C4.11076 8.57487 4.00901 8.59515 3.90625 8.59515C3.80349 8.59515 3.70174 8.57487 3.60682 8.53549C3.51191 8.4961 3.4257 8.43838 3.35312 8.36563L1.79063 6.80313C1.71799 6.73049 1.66037 6.64425 1.62106 6.54935C1.58175 6.45444 1.56151 6.35273 1.56151 6.25C1.56151 6.14727 1.58175 6.04556 1.62106 5.95065C1.66037 5.85575 1.71799 5.76951 1.79063 5.69687C1.86326 5.62424 1.9495 5.56662 2.0444 5.52731C2.13931 5.488 2.24103 5.46776 2.34375 5.46776C2.44647 5.46776 2.54819 5.488 2.6431 5.52731C2.738 5.56662 2.82424 5.62424 2.89687 5.69687L3.90625 6.70781L6.47812 4.13437C6.55076 4.06174 6.637 4.00412 6.7319 3.96481C6.82681 3.9255 6.92852 3.90526 7.03125 3.90526C7.13398 3.90526 7.23569 3.9255 7.3306 3.96481C7.4255 4.00412 7.51174 4.06174 7.58438 4.13437C7.65701 4.20701 7.71463 4.29325 7.75394 4.38815C7.79325 4.48306 7.81349 4.58478 7.81349 4.6875C7.81349 4.79022 7.79325 4.89194 7.75394 4.98685C7.71463 5.08175 7.65701 5.16799 7.58438 5.24063L4.45938 8.36563ZM4.45938 20.8656C4.3868 20.9384 4.30059 20.9961 4.20568 21.0355C4.11076 21.0749 4.00901 21.0951 3.90625 21.0951C3.80349 21.0951 3.70174 21.0749 3.60682 21.0355C3.51191 20.9961 3.4257 20.9384 3.35312 20.8656L1.79063 19.3031C1.64393 19.1564 1.56151 18.9575 1.56151 18.75C1.56151 18.5425 1.64393 18.3436 1.79063 18.1969C1.93732 18.0502 2.13629 17.9678 2.34375 17.9678C2.55121 17.9678 2.75018 18.0502 2.89687 18.1969L3.90625 19.2078L6.47812 16.6344C6.62482 16.4877 6.82379 16.4053 7.03125 16.4053C7.23871 16.4053 7.43768 16.4877 7.58438 16.6344C7.73107 16.7811 7.81349 16.98 7.81349 17.1875C7.81349 17.395 7.73107 17.5939 7.58438 17.7406L4.45938 20.8656ZM10.9375 16.4062C10.9375 16.199 11.0198 16.0003 11.1663 15.8538C11.3128 15.7073 11.5115 15.625 11.7188 15.625H22.6562C22.8635 15.625 23.0622 15.7073 23.2087 15.8538C23.3552 16.0003 23.4375 16.199 23.4375 16.4062V17.9688C23.4375 18.176 23.3552 18.3747 23.2087 18.5212C23.0622 18.6677 22.8635 18.75 22.6562 18.75H11.7188C11.5115 18.75 11.3128 18.6677 11.1663 18.5212C11.0198 18.3747 10.9375 18.176 10.9375 17.9688V16.4062ZM10.9375 8.59375C10.9375 8.38655 11.0198 8.18784 11.1663 8.04132C11.3128 7.89481 11.5115 7.8125 11.7188 7.8125H19.5312C19.7385 7.8125 19.9372 7.89481 20.0837 8.04132C20.2302 8.18784 20.3125 8.38655 20.3125 8.59375C20.3125 8.80095 20.2302 8.99966 20.0837 9.14618C19.9372 9.29269 19.7385 9.375 19.5312 9.375H11.7188C11.5115 9.375 11.3128 9.29269 11.1663 9.14618C11.0198 8.99966 10.9375 8.80095 10.9375 8.59375ZM10.9375 21.0938C10.9375 20.8865 11.0198 20.6878 11.1663 20.5413C11.3128 20.3948 11.5115 20.3125 11.7188 20.3125H19.5312C19.7385 20.3125 19.9372 20.3948 20.0837 20.5413C20.2302 20.6878 20.3125 20.8865 20.3125 21.0938C20.3125 21.301 20.2302 21.4997 20.0837 21.6462C19.9372 21.7927 19.7385 21.875 19.5312 21.875H11.7188C11.5115 21.875 11.3128 21.7927 11.1663 21.6462C11.0198 21.4997 10.9375 21.301 10.9375 21.0938Z" fill="#09B610"/>
</g>
<defs>
<clipPath id="clip0_1293_3729">
<rect width="25" height="25" fill="white"/>
</clipPath>
</defs>
</svg>
