<svg width="32" height="33" viewBox="0 0 32 33" fill="none" xmlns="http://www.w3.org/2000/svg">
<g clip-path="url(#clip0_105_16717)">
<path d="M16 6.40356C12.9226 6.40356 10.4187 8.90723 10.4187 11.9849C10.4187 15.0623 12.9226 17.5659 16 17.5659C19.0774 17.5659 21.5813 15.0623 21.5813 11.9849C21.5813 8.90723 19.0774 6.40356 16 6.40356Z" fill="url(#paint0_linear_105_16717)"/>
<path d="M16 0.5C7.17749 0.5 0 7.67749 0 16.5C0 20.582 1.53735 24.311 4.06226 27.1409C4.60303 24.7664 5.84399 22.5999 7.65601 20.9121C8.92773 19.7275 10.4158 18.8411 12.0242 18.2898C9.93433 16.9673 8.5437 14.6355 8.5437 11.9849C8.5437 7.87329 11.8887 4.52856 16 4.52856C20.1113 4.52856 23.4561 7.87329 23.4561 11.9849C23.4561 14.6343 22.0667 16.9653 19.9783 18.2881C21.7205 18.8848 23.3174 19.8755 24.658 21.2161C26.2959 22.854 27.4268 24.9128 27.9365 27.1418C30.4624 24.312 32 20.5825 32 16.5C32 7.67749 24.8225 0.5 16 0.5Z" fill="url(#paint1_linear_105_16717)"/>
<path d="M5.69385 28.728C8.47998 31.0801 12.0769 32.5 16 32.5C19.9231 32.5 23.52 31.0798 26.3062 28.728C26.0496 26.397 25.002 24.2117 23.3323 22.542C21.3733 20.583 18.7693 19.5042 16 19.5042C10.7256 19.5042 6.26636 23.5278 5.69385 28.728Z" fill="url(#paint2_linear_105_16717)"/>
</g>
<defs>
<linearGradient id="paint0_linear_105_16717" x1="9.24369" y1="6.40356" x2="21.5811" y2="17.5662" gradientUnits="userSpaceOnUse">
<stop stop-color="#098E42"/>
<stop offset="1" stop-color="#1EBE25"/>
</linearGradient>
<linearGradient id="paint1_linear_105_16717" x1="-3.36842" y1="0.5" x2="26.1234" y2="32.5495" gradientUnits="userSpaceOnUse">
<stop stop-color="#098E42"/>
<stop offset="1" stop-color="#1EBE25"/>
</linearGradient>
<linearGradient id="paint2_linear_105_16717" x1="3.52413" y1="19.5042" x2="17.067" y2="38.9384" gradientUnits="userSpaceOnUse">
<stop stop-color="#098E42"/>
<stop offset="1" stop-color="#1EBE25"/>
</linearGradient>
<clipPath id="clip0_105_16717">
<rect width="32" height="32" fill="white" transform="translate(0 0.5)"/>
</clipPath>
</defs>
</svg>
